<?xml version="1.0" encoding="utf-8"?>
<!-- Generator: Adobe Illustrator 27.5.0, SVG Export Plug-In . SVG Version: 6.00 Build 0)  -->
<svg version="1.1" id="Layer_1" xmlns="http://www.w3.org/2000/svg" xmlns:xlink="http://www.w3.org/1999/xlink" x="0px" y="0px"
	 viewBox="0 0 820 460" style="enable-background:new 0 0 820 460;" xml:space="preserve">
<rect x="0" y="0" style="fill:#E2466B;" width="820" height="460"/>
<g>
	<path style="fill:#C6345E;" d="M785.832,340.06c0,12.285-168.269,22.241-375.842,22.241c-207.556,0-375.823-9.956-375.823-22.241
		c0-12.283,168.267-22.247,375.823-22.247C617.563,317.814,785.832,327.777,785.832,340.06z"/>
	<g>
		<rect x="164.128" y="97.698" style="fill:#D2F7FF;" width="133.679" height="105.338"/>
		<linearGradient id="SVGID_1_" gradientUnits="userSpaceOnUse" x1="164.1279" y1="104.4282" x2="297.8071" y2="104.4282">
			<stop  offset="0" style="stop-color:#187ADD"/>
			<stop  offset="1" style="stop-color:#1875D3"/>
		</linearGradient>
		<rect x="164.128" y="97.698" style="opacity:0.6;fill:url(#SVGID_1_);" width="133.679" height="13.46"/>
		<path style="fill:#A9E8EF;" d="M174.936,104.913c0,1.727-1.149,3.121-2.563,3.121c-1.417,0-2.564-1.395-2.564-3.121
			c0-1.722,1.147-3.116,2.564-3.116C173.787,101.797,174.936,103.191,174.936,104.913z"/>
		<path style="fill:#A9E8EF;" d="M182.626,104.913c0,1.727-1.147,3.121-2.567,3.121c-1.413,0-2.56-1.395-2.56-3.121
			c0-1.722,1.147-3.116,2.56-3.116C181.478,101.797,182.626,103.191,182.626,104.913z"/>
		<path style="fill:#A9E8EF;" d="M190.314,104.913c0,1.727-1.147,3.121-2.567,3.121c-1.417,0-2.56-1.395-2.56-3.121
			c0-1.722,1.143-3.116,2.56-3.116C189.168,101.797,190.314,103.191,190.314,104.913z"/>
		<rect x="169.809" y="120.391" style="fill:#78CACE;" width="121.174" height="23.81"/>
		<rect x="169.809" y="148.27" style="fill:#78CACE;" width="57.952" height="21.083"/>
		<rect x="169.809" y="173.051" style="fill:#78CACE;" width="57.952" height="21.089"/>
		<rect x="237.312" y="148.27" style="fill:#78CACE;" width="53.672" height="45.87"/>
	</g>
	<g>
		<rect x="582.301" y="124.196" style="fill:#D2F7FF;" width="133.68" height="105.337"/>
		
			<linearGradient id="SVGID_00000159466063617852797850000010691659103943780538_" gradientUnits="userSpaceOnUse" x1="582.3008" y1="130.9263" x2="715.9805" y2="130.9263">
			<stop  offset="0" style="stop-color:#187ADD"/>
			<stop  offset="1" style="stop-color:#1875D3"/>
		</linearGradient>
		
			<rect x="582.301" y="124.196" style="opacity:0.6;fill:url(#SVGID_00000159466063617852797850000010691659103943780538_);" width="133.68" height="13.46"/>
		<path style="fill:#A9E8EF;" d="M593.109,131.411c0,1.727-1.15,3.121-2.563,3.121c-1.418,0-2.564-1.395-2.564-3.121
			c0-1.722,1.146-3.116,2.564-3.116C591.959,128.295,593.109,129.689,593.109,131.411z"/>
		<path style="fill:#A9E8EF;" d="M600.799,131.411c0,1.727-1.148,3.121-2.566,3.121c-1.414,0-2.561-1.395-2.561-3.121
			c0-1.722,1.147-3.116,2.561-3.116C599.65,128.295,600.799,129.689,600.799,131.411z"/>
		<path style="fill:#A9E8EF;" d="M608.488,131.411c0,1.727-1.148,3.121-2.568,3.121c-1.416,0-2.559-1.395-2.559-3.121
			c0-1.722,1.143-3.116,2.559-3.116C607.34,128.295,608.488,129.689,608.488,131.411z"/>
		<rect x="587.982" y="146.889" style="fill:#78CACE;" width="121.174" height="23.809"/>
		<rect x="587.982" y="174.768" style="fill:#78CACE;" width="57.951" height="21.082"/>
		<rect x="587.982" y="199.549" style="fill:#78CACE;" width="57.951" height="21.088"/>
		<rect x="655.484" y="174.768" style="fill:#78CACE;" width="53.672" height="45.869"/>
	</g>
	<g>
		<path style="fill:#D586D9;" d="M761.172,139.803h-12.73c-9.592,0-17.365,9.424-17.365,21.047v177.693h47.461V160.85
			C778.537,149.227,770.76,139.803,761.172,139.803z"/>
		<path style="fill:#BA61C1;" d="M731.076,160.85v177.693h23.728v-198.74h-6.363C738.85,139.803,731.076,149.227,731.076,160.85z"/>
		<rect x="731.076" y="170.66" style="fill:#E39AE8;" width="47.461" height="65.771"/>
		<path style="fill:#D2F7FF;" d="M774.234,202.191c0,11.064-8.703,20.04-19.44,20.04c-10.738,0-19.441-8.976-19.441-20.04
			c0-11.07,8.703-20.036,19.441-20.036C765.531,182.155,774.234,191.121,774.234,202.191z"/>
		<path style="fill:#2A2873;" d="M717.019,176.865H706.66c-7.801,0-14.127,7.666-14.127,17.123v144.555h38.611V193.988
			C731.144,184.531,724.816,176.865,717.019,176.865z"/>
		<path style="fill:#1E1E60;" d="M692.533,193.988v144.555h19.305V176.865h-5.178C698.859,176.865,692.533,184.531,692.533,193.988z
			"/>
		<rect x="692.533" y="201.971" style="fill:#D2F7FF;" width="38.611" height="9.429"/>
		<rect x="692.533" y="217.506" style="fill:#D2F7FF;" width="38.611" height="9.429"/>
	</g>
	<g>
		<rect x="377.101" y="150.237" style="fill:#FECC2F;" width="269.883" height="177.517"/>
		<polygon style="fill:#D88D21;" points="377.101,150.237 512.051,239.002 646.984,150.237 		"/>
	</g>
	<g>
		<g>
			<path style="fill:#343489;" d="M541.652,133.442c0,4.969-3.705,8.999-8.275,8.999h-34.252c-4.572,0-8.275-4.03-8.275-8.999l0,0
				c0-4.968,3.703-8.998,8.275-8.998h34.252C537.947,124.444,541.652,128.475,541.652,133.442L541.652,133.442z"/>
			<g>
				<g>
					<path style="fill:#FFFFFF;" d="M504.945,129.777c0.512-0.087,1.227-0.152,2.238-0.152c1.022,0,1.748,0.197,2.236,0.587
						c0.467,0.368,0.781,0.977,0.781,1.694c0,0.717-0.238,1.324-0.672,1.738c-0.565,0.531-1.402,0.769-2.379,0.769
						c-0.217,0-0.412-0.011-0.564-0.032v2.617h-1.641V129.777z M506.586,133.1c0.143,0.034,0.314,0.045,0.553,0.045
						c0.881,0,1.424-0.445,1.424-1.195c0-0.674-0.467-1.074-1.293-1.074c-0.336,0-0.563,0.031-0.684,0.064V133.1z"/>
					<path style="fill:#FFFFFF;" d="M511.465,129.68h1.662v5.929h2.91v1.39h-4.572V129.68z"/>
					<path style="fill:#FFFFFF;" d="M518.994,135.121l-0.519,1.877h-1.717l2.236-7.318h2.174l2.268,7.318h-1.779l-0.564-1.877
						H518.994z M520.854,133.881l-0.457-1.553c-0.131-0.434-0.262-0.977-0.369-1.411h-0.021c-0.109,0.434-0.219,0.989-0.338,1.411
						l-0.434,1.553H520.854z"/>
					<path style="fill:#FFFFFF;" d="M525.287,136.998v-2.996l-2.313-4.322h1.889l0.75,1.759c0.227,0.532,0.379,0.924,0.564,1.4
						h0.022c0.162-0.455,0.336-0.879,0.555-1.4l0.738-1.759h1.854l-2.408,4.268v3.051H525.287z"/>
				</g>
			</g>
		</g>
		<g>
			<path style="fill:#61B3DB;" d="M670.377,197.798c0,5.718-4.635,10.352-10.352,10.352h-53.783
				c-5.717,0-10.352-4.634-10.352-10.352l0,0c0-5.717,4.635-10.353,10.352-10.353h53.783
				C665.742,187.445,670.377,192.081,670.377,197.798L670.377,197.798z"/>
			<g>
				<g>
					<path style="fill:#FFFFFF;" d="M611.432,194.411h4.475v1.356h-2.813v1.672h2.627v1.347h-2.627v2.943h-1.662V194.411z"/>
					<path style="fill:#FFFFFF;" d="M618.344,199.851l-0.521,1.879h-1.715l2.236-7.318h2.172l2.27,7.318h-1.779l-0.566-1.879
						H618.344z M620.199,198.613l-0.455-1.554c-0.129-0.433-0.26-0.977-0.369-1.41h-0.023c-0.108,0.434-0.215,0.986-0.334,1.41
						l-0.438,1.554H620.199z"/>
					<path style="fill:#FFFFFF;" d="M623.971,194.509c0.535-0.086,1.326-0.152,2.205-0.152c1.086,0,1.848,0.163,2.367,0.576
						c0.436,0.348,0.674,0.856,0.674,1.529c0,0.936-0.662,1.574-1.291,1.803v0.033c0.508,0.207,0.791,0.694,0.977,1.368
						c0.227,0.826,0.455,1.782,0.598,2.064h-1.693c-0.121-0.207-0.295-0.803-0.514-1.705c-0.195-0.911-0.508-1.161-1.182-1.172h-0.5
						v2.877h-1.641V194.509z M625.611,197.657h0.652c0.824,0,1.314-0.413,1.314-1.053c0-0.674-0.459-1.011-1.217-1.022
						c-0.402,0-0.631,0.032-0.75,0.056V197.657z"/>
					<path style="fill:#FFFFFF;" d="M632.033,195.802h-1.965v-1.391h5.623v1.391h-1.996v5.928h-1.662V195.802z"/>
					<path style="fill:#FFFFFF;" d="M638.445,194.411v2.813h2.723v-2.813h1.652v7.318h-1.652v-3.062h-2.723v3.062h-1.662v-7.318
						H638.445z"/>
					<path style="fill:#FFFFFF;" d="M648.828,198.634h-2.693v1.738h3.006v1.358h-4.666v-7.318h4.518v1.356h-2.857v1.521h2.693
						V198.634z"/>
					<path style="fill:#FFFFFF;" d="M650.482,194.509c0.533-0.086,1.324-0.152,2.207-0.152c1.084,0,1.844,0.163,2.365,0.576
						c0.436,0.348,0.672,0.856,0.672,1.529c0,0.936-0.66,1.574-1.289,1.803v0.033c0.51,0.207,0.791,0.694,0.977,1.368
						c0.228,0.826,0.455,1.782,0.598,2.064h-1.695c-0.119-0.207-0.293-0.803-0.51-1.705c-0.195-0.911-0.512-1.161-1.184-1.172h-0.5
						v2.877h-1.641V194.509z M652.123,197.657h0.65c0.826,0,1.316-0.413,1.316-1.053c0-0.674-0.455-1.011-1.217-1.022
						c-0.402,0-0.629,0.032-0.75,0.056V197.657z"/>
				</g>
			</g>
		</g>
		<g>
			<path style="fill:#E39AE8;" d="M632.15,162.984c0,5.716-4.637,10.352-10.354,10.352h-86.188c-5.717,0-10.352-4.637-10.352-10.352
				l0,0c0-5.719,4.635-10.353,10.352-10.353h86.188C627.514,152.632,632.15,157.266,632.15,162.984L632.15,162.984z"/>
			<g>
				<g>
					<path style="fill:#FFFFFF;" d="M564.775,166.83v-7.318h1.935l1.52,2.68c0.434,0.771,0.869,1.685,1.195,2.509h0.031
						c-0.107-0.966-0.141-1.953-0.141-3.051v-2.138h1.519v7.318H569.1l-1.564-2.824c-0.434-0.782-0.914-1.727-1.27-2.583
						l-0.033,0.011c0.043,0.966,0.066,1.998,0.066,3.19v2.206H564.775z"/>
					<path style="fill:#FFFFFF;" d="M576.834,163.734h-2.695v1.737h3.01v1.358h-4.67v-7.318h4.516v1.355h-2.855v1.521h2.695V163.734
						z"/>
					<path style="fill:#FFFFFF;" d="M582.342,166.83l-0.66-1.324c-0.271-0.511-0.445-0.893-0.652-1.316h-0.021
						c-0.152,0.424-0.336,0.806-0.566,1.316l-0.607,1.324h-1.891l2.119-3.704l-2.041-3.614h1.898l0.643,1.335
						c0.217,0.444,0.379,0.803,0.553,1.216h0.021c0.174-0.466,0.316-0.792,0.5-1.216l0.619-1.335h1.891l-2.065,3.572l2.172,3.746
						H582.342z"/>
					<path style="fill:#FFFFFF;" d="M586.83,160.901h-1.965v-1.39h5.625v1.39h-2v5.929h-1.66V160.901z"/>
				</g>
			</g>
		</g>
	</g>
	<g>
		<g>
			<path style="fill:#343489;" d="M72.394,186.148H59.919c-9.391,0-17.009,7.362-17.009,16.447V341.44H89.4V202.596
				C89.4,193.511,81.785,186.148,72.394,186.148z"/>
			<path style="fill:#2A2873;" d="M42.91,202.596V341.44h23.244V186.148h-6.234C50.528,186.148,42.91,193.511,42.91,202.596z"/>
			<rect x="42.91" y="210.261" style="fill:#3A3A99;" width="46.49" height="51.387"/>
			<rect x="42.91" y="225.71" style="fill:#D2F7FF;" width="46.49" height="7.612"/>
			<rect x="42.91" y="240.638" style="fill:#D2F7FF;" width="46.49" height="7.612"/>
		</g>
		<g>
			<path style="fill:#61B3DB;" d="M113.519,209.246h-10.429c-7.854,0-14.227,6.18-14.227,13.801v116.52h38.88v-116.52
				C127.743,215.426,121.375,209.246,113.519,209.246z"/>
			<rect x="88.862" y="229.48" style="fill:#EEC03E;" width="38.88" height="43.127"/>
			<path style="fill:#C6345E;" d="M124.304,247.768c0,8.576-7.164,15.529-15.999,15.529c-8.838,0-16.007-6.953-16.007-15.529
				c0-8.572,7.169-15.524,16.007-15.524C117.141,232.243,124.304,239.195,124.304,247.768z"/>
		</g>
	</g>
	<g>
		<path style="fill:#E39AE8;" d="M192.596,175.113c0,6.6-5.351,11.947-11.942,11.947H57.633c-6.596,0-11.94-5.348-11.94-11.947
			v-44.368c0-6.596,5.344-11.944,11.94-11.944h123.021c6.592,0,11.942,5.349,11.942,11.944V175.113z"/>
		<polygon style="fill:#E39AE8;" points="131.36,175.855 129.179,212.808 107.414,174.439 		"/>
		<g>
			<path style="fill:#FFFFFF;" d="M70.02,143.739l-0.862,3.105h-2.835l3.698-12.093h3.587l3.751,12.093h-2.943l-0.933-3.105H70.02z
				 M73.088,141.693l-0.753-2.565c-0.217-0.718-0.431-1.614-0.612-2.331h-0.034c-0.179,0.717-0.358,1.63-0.557,2.331l-0.719,2.565
				H73.088z"/>
			<path style="fill:#FFFFFF;" d="M81.42,134.751v6.96c0,2.083,0.791,3.142,2.191,3.142c1.434,0,2.224-1.006,2.224-3.142v-6.96
				h2.727v6.78c0,3.734-1.884,5.51-5.041,5.51c-3.052,0-4.847-1.686-4.847-5.543v-6.747H81.42z"/>
			<path style="fill:#FFFFFF;" d="M101.379,146.287c-0.843,0.288-2.439,0.684-4.037,0.684c-2.207,0-3.803-0.557-4.916-1.634
				c-1.112-1.041-1.723-2.619-1.705-4.396c0.019-4.02,2.942-6.316,6.909-6.316c1.562,0,2.763,0.307,3.356,0.592l-0.574,2.19
				c-0.666-0.288-1.491-0.52-2.818-0.52c-2.279,0-4.002,1.29-4.002,3.91c0,2.494,1.561,3.967,3.805,3.967
				c0.626,0,1.13-0.072,1.345-0.182v-2.528h-1.867v-2.135h4.504V146.287z"/>
			<path style="fill:#FFFFFF;" d="M114.089,142.215c-0.054-1.453-0.106-3.213-0.106-4.971h-0.055
				c-0.378,1.544-0.88,3.266-1.345,4.683l-1.471,4.721h-2.135l-1.293-4.686c-0.395-1.417-0.807-3.14-1.095-4.718h-0.035
				c-0.072,1.634-0.126,3.5-0.216,5.006l-0.214,4.594h-2.531l0.771-12.093h3.644l1.184,4.037c0.377,1.398,0.752,2.905,1.024,4.322
				h0.052c0.34-1.399,0.753-2.995,1.149-4.34l1.292-4.019h3.572l0.664,12.093h-2.674L114.089,142.215z"/>
			<path style="fill:#FFFFFF;" d="M126.582,141.73h-4.449v2.871h4.968v2.242h-7.715v-12.093h7.463v2.242h-4.717v2.513h4.449V141.73z
				"/>
			<path style="fill:#FFFFFF;" d="M129.317,146.844v-12.093h3.194l2.513,4.432c0.718,1.273,1.434,2.779,1.974,4.145h0.052
				c-0.179-1.597-0.231-3.229-0.231-5.041v-3.535h2.511v12.093h-2.871l-2.583-4.665c-0.718-1.293-1.509-2.854-2.101-4.27
				l-0.052,0.017c0.07,1.599,0.107,3.304,0.107,5.278v3.641H129.317z"/>
			<path style="fill:#FFFFFF;" d="M144.379,137.048h-3.249v-2.297h9.293v2.297h-3.301v9.796h-2.744V137.048z"/>
			<path style="fill:#FFFFFF;" d="M159.423,141.73h-4.449v2.871h4.969v2.242h-7.715v-12.093h7.464v2.242h-4.718v2.513h4.449V141.73z
				"/>
			<path style="fill:#FFFFFF;" d="M162.158,134.913c1.004-0.162,2.314-0.254,3.696-0.254c2.296,0,3.786,0.413,4.954,1.293
				c1.255,0.935,2.046,2.424,2.046,4.558c0,2.315-0.845,3.911-2.011,4.897c-1.273,1.059-3.212,1.564-5.581,1.564
				c-1.417,0-2.421-0.092-3.105-0.182V134.913z M164.905,144.781c0.234,0.054,0.609,0.054,0.95,0.054
				c2.475,0.018,4.091-1.347,4.091-4.234c0.018-2.514-1.454-3.841-3.803-3.841c-0.611,0-1.004,0.055-1.238,0.106V144.781z"/>
			<path style="fill:#FFFFFF;" d="M88.157,156.426c0.88-0.144,2.19-0.253,3.644-0.253c1.792,0,3.05,0.27,3.91,0.951
				c0.719,0.574,1.113,1.417,1.113,2.531c0,1.543-1.093,2.603-2.134,2.977v0.055c0.842,0.341,1.309,1.148,1.615,2.26
				c0.375,1.365,0.753,2.943,0.987,3.41h-2.801c-0.196-0.34-0.483-1.327-0.842-2.815c-0.324-1.509-0.843-1.922-1.956-1.939h-0.825
				v4.754h-2.71V156.426z M90.867,161.628h1.076c1.365,0,2.173-0.681,2.173-1.739c0-1.113-0.753-1.671-2.011-1.688
				c-0.664,0-1.039,0.056-1.238,0.09V161.628z"/>
			<path style="fill:#FFFFFF;" d="M106.341,163.244h-4.449v2.87h4.971v2.242h-7.714v-12.093h7.464v2.242h-4.72v2.514h4.449V163.244z
				"/>
			<path style="fill:#FFFFFF;" d="M111.895,165.252l-0.86,3.104h-2.837l3.696-12.093h3.589l3.752,12.093h-2.943l-0.935-3.104
				H111.895z M114.962,163.207l-0.752-2.565c-0.214-0.719-0.431-1.616-0.61-2.332h-0.037c-0.179,0.716-0.358,1.631-0.554,2.332
				l-0.718,2.565H114.962z"/>
			<path style="fill:#FFFFFF;" d="M121.198,156.264h2.744v9.796h4.81v2.297h-7.554V156.264z"/>
			<path style="fill:#FFFFFF;" d="M133.46,156.264v12.093h-2.744v-12.093H133.46z"/>
			<path style="fill:#FFFFFF;" d="M138.515,158.561h-3.246v-2.297h9.293v2.297h-3.301v9.796h-2.747V158.561z"/>
			<path style="fill:#FFFFFF;" d="M149.289,168.356v-4.951l-3.821-7.142h3.122l1.238,2.906c0.375,0.88,0.628,1.526,0.932,2.314
				h0.037c0.268-0.754,0.555-1.455,0.915-2.314l1.22-2.906H156l-3.982,7.052v5.041H149.289z"/>
		</g>
	</g>
	<rect x="226.792" y="181.684" style="fill:#343489;" width="221.056" height="158.641"/>
	<rect x="226.792" y="181.684" style="fill:#343489;" width="221.056" height="154.091"/>
	<polygon style="fill:#81D5E2;" points="353.428,172.361 337.319,187.711 322.246,172.361 232.303,172.361 232.303,331.694 
		442.33,331.694 442.33,172.361 	"/>
	<polygon style="fill:#B7DFE9;" points="442.33,172.361 353.428,172.361 337.319,187.711 337.319,331.694 442.33,331.694 	"/>
	<g>
		<rect x="241.597" y="192.194" style="fill:#49AFBA;" width="86.374" height="3.548"/>
		<rect x="241.597" y="205.281" style="fill:#49AFBA;" width="86.374" height="3.548"/>
		<rect x="241.597" y="218.369" style="fill:#49AFBA;" width="86.374" height="3.547"/>
		<rect x="241.597" y="231.455" style="fill:#49AFBA;" width="86.374" height="3.549"/>
		<rect x="241.597" y="247.16" style="fill:#49AFBA;" width="86.374" height="3.548"/>
		<rect x="241.597" y="260.248" style="fill:#49AFBA;" width="86.374" height="3.547"/>
		<rect x="241.597" y="273.334" style="fill:#49AFBA;" width="86.374" height="3.549"/>
		<rect x="241.597" y="286.422" style="fill:#49AFBA;" width="86.374" height="3.548"/>
		<rect x="241.597" y="302.127" style="fill:#49AFBA;" width="86.374" height="3.547"/>
		<rect x="241.597" y="315.213" style="fill:#49AFBA;" width="86.374" height="3.549"/>
	</g>
	<g>
		<rect x="348.911" y="192.194" style="fill:#D2F7FF;" width="86.376" height="3.548"/>
		<rect x="348.911" y="205.281" style="fill:#D2F7FF;" width="86.376" height="3.548"/>
		<rect x="348.911" y="218.369" style="fill:#D2F7FF;" width="86.376" height="3.547"/>
		<rect x="348.911" y="231.455" style="fill:#D2F7FF;" width="86.376" height="3.549"/>
		<rect x="348.911" y="247.16" style="fill:#D2F7FF;" width="86.376" height="3.548"/>
		<rect x="348.911" y="260.248" style="fill:#D2F7FF;" width="86.376" height="3.547"/>
		<rect x="348.911" y="273.334" style="fill:#D2F7FF;" width="86.376" height="3.549"/>
		<rect x="348.911" y="286.422" style="fill:#D2F7FF;" width="86.376" height="3.548"/>
		<rect x="348.911" y="302.127" style="fill:#D2F7FF;" width="86.376" height="3.547"/>
		<rect x="348.911" y="315.213" style="fill:#D2F7FF;" width="86.376" height="3.549"/>
	</g>
	<path style="opacity:0.1;" d="M382.273,242.559c0,23.204-18.815,42.02-42.024,42.02c-23.204,0-42.017-18.815-42.017-42.02
		c0-23.206,18.813-42.02,42.017-42.02C363.458,200.539,382.273,219.352,382.273,242.559z"/>
	<g>
		<path style="fill:#FF645F;" d="M377.872,237.934c0,22.394-18.159,40.55-40.555,40.55c-22.396,0-40.549-18.156-40.549-40.55
			c0-22.396,18.153-40.553,40.549-40.553C359.713,197.382,377.872,215.538,377.872,237.934z"/>
		<polygon style="fill:#D2F7FF;" points="328.706,225.733 328.706,250.135 353.108,237.932 		"/>
	</g>
	<g>
		<path style="fill:#E3FBFC;" d="M103.038,303.131H70.527v20.975h36.319v16.385H50.472v-88.353h54.534v16.385H70.527v18.353h32.511
			V303.131z"/>
		<path style="fill:#E3FBFC;" d="M123.117,253.316c7.341-1.179,16.909-1.84,27.001-1.84c16.78,0,27.663,3.018,36.189,9.439
			c9.172,6.817,14.94,17.699,14.94,33.302c0,16.908-6.163,28.574-14.682,35.786c-9.31,7.736-23.468,11.407-40.772,11.407
			c-10.358,0-17.699-0.662-22.677-1.315V253.316z M143.172,325.412c1.702,0.395,4.461,0.395,6.946,0.395
			c18.095,0.129,29.897-9.834,29.897-30.938c0.129-18.352-10.624-28.05-27.8-28.05c-4.453,0-7.341,0.388-9.043,0.782V325.412z"/>
		<path style="fill:#E3FBFC;" d="M236.929,252.138v50.856c0,15.215,5.768,22.942,15.998,22.942c10.487,0,16.247-7.341,16.247-22.942
			v-50.856H289.1v49.549c0,27.268-13.763,40.248-36.835,40.248c-22.282,0-35.391-12.327-35.391-40.506v-49.291H236.929z"/>
		<path style="fill:#E3FBFC;" d="M373.943,337.997c-3.671,1.84-11.932,3.8-22.677,3.8c-30.551,0-46.282-19.006-46.282-44.176
			c0-30.147,21.499-46.927,48.242-46.927c10.358,0,18.224,2.098,21.766,3.929l-4.066,15.859c-4.065-1.702-9.704-3.274-16.779-3.274
			c-15.86,0-28.188,9.567-28.188,29.235c0,17.699,10.488,28.84,28.316,28.84c6.034,0,12.722-1.315,16.65-2.88L373.943,337.997z"/>
		<path style="fill:#E3FBFC;" d="M411.584,317.814l-6.293,22.677h-20.707l27-88.353h26.219l27.404,88.353h-21.508l-6.809-22.677
			H411.584z M434.004,302.864l-5.502-18.748c-1.582-5.243-3.147-11.794-4.463-17.038h-0.266c-1.307,5.244-2.613,11.932-4.057,17.038
			l-5.244,18.748H434.004z"/>
		<path style="fill:#E3FBFC;" d="M485.803,268.918h-23.727v-16.78h67.902v16.78h-24.121v71.572h-20.055V268.918z"/>
		<path style="fill:#E3FBFC;" d="M563.297,252.138v88.353h-20.064v-88.353H563.297z"/>
		<path style="fill:#E3FBFC;" d="M664.111,295.395c0,28.969-17.563,46.54-43.385,46.54c-26.219,0-41.563-19.797-41.563-44.967
			c0-26.485,16.908-46.273,42.998-46.273C649.301,250.694,664.111,271.016,664.111,295.395z M600.268,296.572
			c0,17.304,8.133,29.494,21.508,29.494c13.496,0,21.232-12.844,21.232-30.019c0-15.86-7.6-29.493-21.369-29.493
			C608.143,266.555,600.268,279.405,600.268,296.572z"/>
		<path style="fill:#E3FBFC;" d="M679.875,340.49v-88.353h23.33l18.354,32.374c5.244,9.31,10.486,20.321,14.416,30.284h0.394
			c-1.307-11.665-1.701-23.597-1.701-36.835v-25.823h18.354v88.353h-20.977l-18.877-34.084
			c-5.242-9.438-11.012-20.846-15.336-31.196l-0.394,0.13c0.523,11.665,0.783,24.12,0.783,38.536v26.614H679.875z"/>
		<rect x="738.967" y="252.138" style="fill:#E3FBFC;" width="14.055" height="44.895"/>
	</g>
	<g>
		<g>
			<path style="fill:#EFC18F;" d="M483.752,229.186c0,0-7.582-1.837-5.918-0.054c1.66,1.778,3.143,3.21,6.857,2.169L483.752,229.186
				z"/>
			<path style="fill:#1AB8C2;" d="M508.584,206.809c1.039-0.816,4.643-2.001,5.162,0.904c0.838,4.607-5.883,15.254-8.434,17.564
				c-2.549,2.314-21.053,6.303-21.053,6.303s-1.662-1.124-0.621-2.796l16.723-9.839
				C500.361,218.945,504.998,209.624,508.584,206.809z"/>
		</g>
		<g>
			<polygon style="fill:#FFAA83;" points="466.18,267.379 463.129,269.507 461.844,266.443 465.887,263.897 			"/>
			<path style="fill:#223A7A;" d="M533.982,244.199c0,0-6.121,6.08-17.986,2.944l-23.518,1.966c0,0-15.504,14.792-24.77,18.356
				c-3.551,1.364-4.664-2.718-3.744-3.847c6.5-7.907,19.703-23.526,31.162-26.923c9.783-2.901,18.428-1.364,18.428-1.364
				L533.982,244.199z"/>
			<path style="fill:#F24E60;" d="M462.816,265.622c0,0-0.699,2.221,1.75,2.955c0,0-3.492,5.08-6.328,2.262
				c-2.836-2.817-5.986-9.104-4.979-10.757C454.711,257.698,459.635,262.085,462.816,265.622z"/>
		</g>
		<polygon style="fill:#FFAA83;" points="468.826,278.443 465.768,281.072 464.145,277.654 468.223,274.478 		"/>
		<path style="fill:#2C4481;" d="M532.973,240.816c0,0,4.863,11.276-10.004,12.96l-27.748,2.086c0,0-15.221,17.917-24.76,22.585
			c-3.658,1.789-5.182-2.815-4.293-4.16c6.23-9.474,18.938-28.185,30.824-32.801c10.143-3.941,19.447-2.727,19.447-2.727
			L532.973,240.816z"/>
		<path style="fill:#DD4057;" d="M465.107,276.647c0,0-0.557,2.59,2.107,3.276c0,0-3.283,6.033-6.527,2.988
			c-3.248-3.044-7.121-10.044-6.193-12.001C455.842,268.089,461.434,272.8,465.107,276.647z"/>
		<path style="fill:#48D7F6;" d="M521.957,205.35c4.272,2.97,8.139,10.459,11.016,35.467c0.631,5.505-24.705,6.569-25.084,1.049
			c-1.016-14.698-7.389-24.177-0.773-34.359C507.115,207.506,513.49,199.477,521.957,205.35z"/>
		<path style="fill:#FFAA83;" d="M514.85,196.497c0,0-1.174,4.235,0.59,6.718c1.127,1.583-5.746,7.843-5.787,5.578
			c-0.051-2.914,1.17-4.813-0.685-7.933L514.85,196.497z"/>
		<path style="fill:#FFAA83;" d="M507.795,190.112c-2.127,2.636-3.352,13.135-0.477,15.011c1.25,0.814,5.705-0.922,8.002-5.773
			c0.941-1.991,1.947-5.616-0.383-8.813C513.883,189.09,510.266,187.041,507.795,190.112z"/>
		<path style="fill:#2A2873;" d="M503.902,191.651c0,0,1.406,1.642,5.309,1.697c3.9,0.056,4.522-0.29,4.26,0.676
			c-0.771,2.834,2.104,2.568,1.15,5.955c-0.953,3.389,1.26,0.229,1.56-0.3c0.295-0.527,3.115-4.88,0.291-9.21
			C513.654,186.139,506.928,188.619,503.902,191.651z"/>
		<g>
			<g>
				<g>
					
						<rect x="499.564" y="224.325" transform="matrix(0.1525 -0.9883 0.9883 0.1525 183.9378 701.5699)" style="fill:#C6345E;" width="2.908" height="38.432"/>
				</g>
				<g>
					<polygon style="fill:#C6345E;" points="504.992,245.627 477.945,241.455 476.711,223.058 502.396,227.02 					"/>
				</g>
			</g>
		</g>
		<g>
			<path style="fill:#EFC18F;" d="M499.629,235.142c0,0-7.789-0.425-5.83,1.025c1.957,1.445,3.676,2.583,7.141,0.88L499.629,235.142
				z"/>
			<path style="fill:#1AB8C2;" d="M519.957,208.607c0.869-0.996,4.201-2.816,5.24-0.057c1.664,4.379-2.998,16.074-5.084,18.811
				c-2.084,2.738-19.549,10.041-19.549,10.041s-1.836-0.802-1.121-2.636l14.646-12.728
				C514.09,222.039,516.947,212.029,519.957,208.607z"/>
		</g>
	</g>
	<g>
		<g>
			<path style="fill:#EFC18F;" d="M653.182,276.831c0,0-7.775,0.573-5.648,1.76c2.123,1.189,3.973,2.096,7.188-0.033
				L653.182,276.831z"/>
			<path style="fill:#D88D21;" d="M669.969,247.942c0.733-1.097,3.809-3.326,5.19-0.722c2.201,4.132-0.932,16.317-2.652,19.293
				c-1.719,2.986-18.109,12.442-18.109,12.442s-1.922-0.561-1.443-2.472l12.906-14.479
				C665.859,262.005,667.416,251.717,669.969,247.942z"/>
		</g>
		<polygon style="fill:#FFD9A7;" points="681.039,336.228 681.377,339.958 677.92,339.341 677.715,334.555 		"/>
		<path style="fill:#223A7A;" d="M694.102,267.533c0,0,2.16,8.391-6.248,16.492l-9.758,20.523c0,0,4.959,20.917,3.465,30.531
			c-0.57,3.684-4.555,2.369-5.053,0.995c-3.522-9.706-10.299-29.168-7.604-40.505c2.303-9.679,7.793-15.987,7.793-15.987
			L694.102,267.533z"/>
		<path style="fill:#5BB0FF;" d="M677.68,338.075c0,0,1.656,1.813,3.602,0.167c0,0,2.795,5.73-1.258,6.538
			c-4.043,0.813-11.41-0.031-12.381-1.788C666.229,340.463,672.797,338.775,677.68,338.075z"/>
		<polygon style="fill:#FFD9A7;" points="710.262,334.836 711.809,338.237 708.344,338.799 706.574,334.344 		"/>
		<path style="fill:#2C4481;" d="M700.123,280.159l-3.107,24.015c0,0,11.994,18.961,13.672,29.067
			c0.644,3.875-3.852,4.041-4.815,2.859c-6.807-8.347-20.176-25.191-21.197-37.46c-0.875-10.476-7.225-21.87-7.225-21.87
			S699.91,266.022,700.123,280.159z"/>
		<path style="fill:#5BB0FF;" d="M707.699,337.681c0,0,2.158,1.166,3.463-1.023c0,0,4.512,4.483,0.963,6.581
			c-3.557,2.102-10.791,3.729-12.283,2.395C697.678,343.704,703.316,339.952,707.699,337.681z"/>
		<path style="fill:#EEC03E;" d="M684.16,244.477c4.32,2.138,8.894,8.479,14.943,31.02c1.334,4.955-22.777,10.085-23.014,4.951
			c-0.678-14.98-9.924-21.725-5.242-31.969C670.848,248.479,675.596,240.238,684.16,244.477z"/>
		<path style="fill:#FFAA83;" d="M676.432,237.325c0,0-0.494,4.042,1.463,6.079c1.246,1.293-4.201,7.973-4.547,5.908
			c-0.445-2.665,0.418-4.575-1.715-7.183L676.432,237.325z"/>
		<path style="fill:#FFAA83;" d="M669.09,232.434c-1.582,2.705-1.277,12.503,1.615,13.825c1.254,0.581,5.102-1.621,6.547-6.382
			c0.596-1.961,1.017-5.42-1.553-8.025C674.533,230.664,670.938,229.281,669.09,232.434z"/>
		<path style="fill:#2A2873;" d="M667.203,232.128c0,0,0.41,4.734,3.627,3.08c3.689-1.899,4.115-0.886,4.002,0.04
			c-0.32,2.703,3.643-0.857,1.871,5.306c-0.906,3.13,1.186,0.035,1.385-0.494c0.205-0.523,2.195-4.901-0.99-8.484
			C673.92,227.992,669.56,228.936,667.203,232.128z"/>
		<path style="fill:#2A2873;" d="M666.115,233.538c0.174,1.229,1.584,4.081,4.547,2.29c2.986-1.798,2.986-1.798,3.6-1.642
			c0.607,0.156,0.551,0.38,0.566,0.722c0.004,0.34,1.359-6.438-3.861-5.437C670.967,229.472,665.65,230.227,666.115,233.538z"/>
		<path style="fill:#2A2873;" d="M674.816,235.876c0,0,0.672,3.973,0.078,4.759c-0.588,0.786-0.684,1.927-2.23,2.536
			c-1.545,0.608-3.533,1.587-3.832,0.281c0,0,0.285,4.125,3.164,3.131c0,0,4.213-1.485,5.297-5.439c0,0-1.656,0.158-1.389-4.917
			C675.938,235.636,675.06,236.604,674.816,235.876z"/>
		<g>
			<path style="fill:#EFC18F;" d="M664.701,277.177c0,0-7.775,0.573-5.647,1.76c2.123,1.19,3.971,2.097,7.186-0.033L664.701,277.177
				z"/>
			<path style="fill:#D88D21;" d="M681.49,248.289c0.732-1.098,3.807-3.327,5.187-0.722c2.203,4.131-0.93,16.316-2.654,19.292
				c-1.719,2.984-18.103,12.442-18.103,12.442s-1.926-0.56-1.443-2.471l12.9-14.48C677.377,262.351,678.938,252.064,681.49,248.289z
				"/>
		</g>
	</g>
	<g>
		<g>
			<path style="fill:#EFC18F;" d="M179.859,235.087c0,0,7.478,0.151,5.502,1.399c-1.98,1.24-3.705,2.209-6.895,0.33L179.859,235.087
				z"/>
			<path style="fill:#9EC8D6;" d="M162.301,208.234c-0.76-1.013-3.812-2.996-5.011-0.43c-1.906,4.072,1.721,15.599,3.518,18.365
				c1.797,2.77,17.984,11.014,17.984,11.014s1.824-0.639,1.264-2.443l-13.1-13.229C166.956,221.512,164.943,211.727,162.301,208.234
				z"/>
		</g>
		<g>
			<polygon style="fill:#FFD9A7;" points="212.971,250.915 216.444,251.757 216.354,248.414 211.863,247.537 			"/>
			<path style="fill:#FF645F;" d="M143.756,240.94c0,0,6.685,17.539,16.121,10.075l21.983-7.146c0,0,19.911,7.927,29.689,7.718
				c3.754-0.067,3.117-4.323,1.834-5.014c-9.03-4.923-27.186-14.507-38.882-13.311c-9.981,1.022-17.154,5.762-17.154,5.762
				L143.756,240.94z"/>
			<path style="fill:#EEC03E;" d="M215.194,248.007c0,0,1.47,1.822-0.359,3.422c0,0,5.009,3.454,6.356-0.253
				c1.343-3.7,1.598-10.775,0.082-11.946C219.082,237.537,216.555,243.493,215.194,248.007z"/>
		</g>
		<polygon style="fill:#FFD9A7;" points="186.776,290.885 188.789,293.837 190.961,291.288 188.208,287.634 		"/>
		<path style="fill:#FF645F;" d="M145.335,253.3l22.451,11.546c0,0,9.499,19.203,16.909,25.598c2.838,2.45,5.206-1.134,4.721-2.507
			c-3.423-9.7-10.517-28.962-20.005-35.9c-8.108-5.914-20.464-22.46-20.464-22.46S133.913,246.093,145.335,253.3z"/>
		<path style="fill:#EEC03E;" d="M190.374,290.207c0,0-0.125,2.342-2.561,2.315c0,0,1.417,5.91,4.888,4.06
			c3.481-1.856,8.406-6.945,8.055-8.835C200.265,285.03,194.399,287.764,190.374,290.207z"/>
		<path style="fill:#2A2873;" d="M159.43,191.726c0,0-3.148-3.407-7.846-0.23c0,0-5.598,3.083-4.563,6.615
			c1.031,3.53-6.625,4.711-5.154,9.129c1.475,4.414-7.762,6.615-1.99,13.396c2.232,2.633,8.028,1.768,10.088-1.473
			c2.064-3.236,5.576-3.914,6.693-9.609c1.111-5.703,2.939-12.819,3.646-14.268C161.009,193.842,160.555,192.268,159.43,191.726z"/>
		<path style="fill:#61B3DB;" d="M147.352,207.86c-3.733,3.116-6.2,11.238-6.822,34.778c-0.134,5.18,23.969-3.027,22.52-8.006
			c-3.619-12.445,4.728-17.5-0.606-26.138C162.443,208.495,154.756,201.689,147.352,207.86z"/>
		<path style="fill:#EF916C;" d="M153.951,198.77c0,0,1.275,4.196-0.074,6.503c-0.862,1.464,5.689,5.793,5.554,3.817
			c-0.179-2.547-1.393-4.104-0.008-6.969L153.951,198.77z"/>
		<path style="fill:#FFAA83;" d="M159.617,192.658c2.056,2.141,3.929,11.193,1.569,13.052c-1.033,0.806-5.05-0.363-7.424-4.417
			c-0.974-1.668-2.134-4.749-0.342-7.713C154.226,192.237,157.222,190.171,159.617,192.658z"/>
		<path style="fill:#2A2873;" d="M161.229,194.064c0.152,1.209,0.152,1.914-2.604,1.527c-3.381-0.472-2.929,1.916-2.625,2.742
			c0.892,2.411-3.221,0.797-2.128,3.683c1.093,2.879-1.54,0.505-1.844,0.072c-0.3-0.441-2.083-4.459,0.045-8.45
			C154.202,189.645,160.757,190.34,161.229,194.064z"/>
		<g>
			<polygon style="fill:#A9E8EF;" points="154.863,241.002 167.891,241.688 168.74,239.301 154.982,238.746 			"/>
			<polygon style="fill:#8EDADD;" points="167.891,241.688 186.273,239.244 187.573,224.377 169.588,227.24 			"/>
		</g>
		<g>
			<path style="fill:#EFC18F;" d="M167.457,238.077c0,0,7.463,0.548,5.424,1.686c-2.044,1.14-3.814,2.012-6.903-0.031
				L167.457,238.077z"/>
			<path style="fill:#9EC8D6;" d="M151.342,210.34c-0.706-1.052-3.655-3.191-4.982-0.69c-2.115,3.964,0.895,15.661,2.547,18.523
				c1.651,2.863,17.383,11.94,17.383,11.94s1.849-0.536,1.389-2.37l-12.391-13.901C155.288,223.841,153.791,213.965,151.342,210.34z
				"/>
		</g>
	</g>
	<g>
		<g>
			<path style="fill:#EFC18F;" d="M284.506,278.184c0,0,5.54,4.299,3.355,4.129c-2.184-0.168-4.023-0.408-5.367-3.599
				L284.506,278.184z"/>
			<path style="fill:#D586D9;" d="M286.679,245.292c-0.004-1.185-0.339-3.114-2.677-1.856c-3.711,2.004-8.649,14.307-8.845,17.394
				c-0.193,3.089,7.379,18.34,7.379,18.34s1.723,0.538,2.312-1.127l-5.091-17.146C279.757,260.897,286.713,249.391,286.679,245.292z
				"/>
		</g>
		<polygon style="fill:#FFAA83;" points="282.646,336.649 282.898,340.025 279.469,339.398 279.372,335.065 		"/>
		<polygon style="fill:#FFAA83;" points="303.322,340.433 303.575,343.809 300.146,343.18 300.048,338.849 		"/>
		<path style="fill:#5BB0FF;" d="M303.45,342.059c0,0-1.222,1.953-3.305,0.499c0,0-2.245,5.944,1.847,6.382
			c4.089,0.431,11.329-1.081,12.141-2.913C315.296,343.384,308.36,342.308,303.45,342.059z"/>
		<path style="fill:#5BB0FF;" d="M282.82,338.94c0,0-1.974,1.085-3.365-0.148c0,0-4.298,4.698-0.547,6.402
			c3.742,1.705,11.09,2.563,12.436,1.081C293.286,344.138,287.401,340.732,282.82,338.94z"/>
		<path style="fill:#EFC18F;" d="M287.566,234.34c0,0,2.016,4.424,0.515,7.445c-0.954,1.921,7.63,7.57,7.289,5.093
			c-0.448-3.194-2.108-5.059-0.618-8.783L287.566,234.34z"/>
		<path style="fill:#FFAA83;" d="M294.174,226.152c2.772,2.515,5.286,11.093,2.47,13.635c-1.224,1.105-5.75,2.658-9.097-2.248
			c-1.375-2.015-3.096-5.8-1.101-9.693C287.346,226.085,290.942,223.222,294.174,226.152z"/>
		<path style="fill:#2A2873;" d="M298.688,227.159c0,0-1.255,2.039-5.506,2.773c-4.251,0.732-3.058,1.968-2.603,2.973
			c1.33,2.965-1.623,1.892,0,5.423c1.628,3.537-3.497,0.249-3.913-0.277c-0.417-0.527-4.255-4.798-1.917-10.015
			C287.087,222.82,294.859,224.37,298.688,227.159z"/>
		<path style="fill:#2A2873;" d="M295.278,269.54l-4.188,34.554c0,0-2.428,25.143-5.987,33.118
			c-0.774,1.747-6.668,1.649-7.328-0.355c-3.21-9.719,2.841-40.358,2.841-40.358s-1.108-11.59-0.857-15.448
			c0.18-2.919,2.112-11.511,2.112-11.511H295.278z"/>
		<path style="fill:#343489;" d="M287.566,276.283c-5.724,6.906,6.686,35.267,6.686,35.267s-0.872,21.792,3.66,28.145
			c1.023,1.439,7.104,1.662,7.545,0c2.46-9.304,0-33.036,0-33.036l-0.973-30.938l-10.344,0.563
			C294.141,276.283,288.615,275.018,287.566,276.283z"/>
		<path style="fill:#E39AE8;" d="M298.688,245.2c3.936,3.28,5.264,9.854,5.92,34.649c0.143,5.449-24.812,4.31-24.71-1.15
			c0.28-14.509-3.642-19.175,1.021-32.089C282.188,243.101,290.89,238.695,298.688,245.2z"/>
		<g>
			<path style="fill:#EFC18F;" d="M329.513,254.123c0,0,5.969-4.812,5.241-2.529c-0.727,2.281-1.45,4.178-5.194,4.808
				L329.513,254.123z"/>
			<path style="fill:#D586D9;" d="M298.028,244.627c-1.265-0.29-4.97,0.163-4.217,2.971c1.189,4.449,11.446,11.853,14.684,12.844
				c3.239,0.986,21.568-3.97,21.568-3.97s1.005-1.697-0.617-2.754l-18.961-0.855C310.485,252.862,302.399,245.631,298.028,244.627z"
				/>
		</g>
	</g>
	<g>
		<g>
			<path style="fill:#61B3DB;" d="M401.93,158.384c0,4.37-3.541,7.913-7.912,7.913h-66.253c-4.371,0-7.913-3.543-7.913-7.913l0,0
				c0-4.371,3.542-7.915,7.913-7.915h66.253C398.389,150.469,401.93,154.013,401.93,158.384L401.93,158.384z"/>
			<path style="fill:#61B3DB;" d="M319.852,157.133c0,0-1.892,13.858,12.148,17.252c0,0-6.144-11.713,1.431-14.986L319.852,157.133z
				"/>
		</g>
		<path style="fill:#343489;" d="M266.461,130.066c0,3.476,2.818,6.295,6.293,6.295h52.689c3.475,0,6.295-2.819,6.295-6.295l0,0
			c0-3.475-2.82-6.293-6.295-6.293h-52.689C269.28,123.773,266.461,126.592,266.461,130.066L266.461,130.066z"/>
		<path style="fill:#343489;" d="M331.739,128.817c0,0,1.89,13.859-12.151,17.252c0,0,6.145-11.713-1.431-14.986L331.739,128.817z"
			/>
		<g>
			<g>
				<path style="fill:#FFFFFF;" d="M289.135,130.381c-0.025-0.671-0.048-1.479-0.048-2.289h-0.026
					c-0.172,0.711-0.404,1.504-0.619,2.156l-0.677,2.171h-0.983l-0.595-2.154c-0.182-0.653-0.372-1.445-0.504-2.173h-0.016
					c-0.032,0.751-0.058,1.61-0.1,2.305l-0.099,2.114h-1.165l0.356-5.566h1.676l0.546,1.858c0.172,0.643,0.345,1.338,0.471,1.99
					h0.024c0.156-0.644,0.347-1.38,0.529-1.998l0.595-1.851h1.644l0.306,5.566h-1.231L289.135,130.381z"/>
				<path style="fill:#FFFFFF;" d="M292.845,131.081l-0.396,1.43h-1.306l1.702-5.566h1.653l1.725,5.566h-1.354l-0.429-1.43H292.845z
					 M294.258,130.141l-0.346-1.182c-0.1-0.33-0.2-0.743-0.282-1.073h-0.016c-0.082,0.33-0.166,0.751-0.256,1.073l-0.33,1.182
					H294.258z"/>
				<path style="fill:#FFFFFF;" d="M297.515,128.002h-1.496v-1.058h4.279v1.058h-1.52v4.509h-1.263V128.002z"/>
				<path style="fill:#FFFFFF;" d="M302.392,126.944v2.139h2.073v-2.139h1.255v5.566h-1.255v-2.328h-2.073v2.328h-1.263v-5.566
					H302.392z"/>
				<path style="fill:#FFFFFF;" d="M307.02,131.214c0.338,0.174,0.857,0.347,1.396,0.347c0.577,0,0.883-0.239,0.883-0.604
					c0-0.346-0.264-0.544-0.933-0.784c-0.925-0.321-1.529-0.833-1.529-1.643c0-0.951,0.793-1.678,2.108-1.678
					c0.627,0,1.089,0.133,1.42,0.28l-0.28,1.018c-0.224-0.108-0.621-0.265-1.166-0.265c-0.544,0-0.809,0.248-0.809,0.537
					c0,0.354,0.313,0.512,1.032,0.784c0.983,0.363,1.447,0.875,1.447,1.66c0,0.934-0.719,1.725-2.247,1.725
					c-0.637,0-1.265-0.164-1.58-0.338L307.02,131.214z"/>
			</g>
		</g>
		<path style="fill:#D586D9;" d="M355.461,113.008c0,0,1.892,13.857-12.148,17.25c0,0,6.144-11.713-1.431-14.984L355.461,113.008z"
			/>
		<path style="fill:#D586D9;" d="M355.548,113.707c0,3.779-2.819,6.845-6.295,6.845h-26.053c-3.478,0-6.295-3.065-6.295-6.845l0,0
			c0-3.779,2.817-6.845,6.295-6.845h26.053C352.729,106.862,355.548,109.928,355.548,113.707L355.548,113.707z"/>
		<g>
			<g>
				<path style="fill:#FFFFFF;" d="M324.89,115.291c0.338,0.174,0.859,0.347,1.396,0.347c0.579,0,0.883-0.238,0.883-0.603
					c0-0.347-0.265-0.545-0.933-0.785c-0.925-0.32-1.528-0.833-1.528-1.643c0-0.95,0.793-1.677,2.107-1.677
					c0.628,0,1.089,0.132,1.421,0.28l-0.282,1.017c-0.222-0.108-0.619-0.265-1.165-0.265c-0.545,0-0.809,0.248-0.809,0.537
					c0,0.354,0.314,0.513,1.033,0.785c0.983,0.362,1.446,0.875,1.446,1.659c0,0.934-0.719,1.727-2.247,1.727
					c-0.637,0-1.264-0.165-1.578-0.339L324.89,115.291z"/>
				<path style="fill:#FFFFFF;" d="M330.543,112.079h-1.496v-1.057h4.277v1.057h-1.518v4.51h-1.264V112.079z"/>
				<path style="fill:#FFFFFF;" d="M339.012,113.747c0,1.824-1.107,2.932-2.735,2.932c-1.65,0-2.617-1.247-2.617-2.833
					c0-1.668,1.065-2.915,2.709-2.915C338.079,110.931,339.012,112.211,339.012,113.747z M334.989,113.821
					c0,1.09,0.513,1.858,1.355,1.858c0.851,0,1.337-0.81,1.337-1.893c0-0.999-0.48-1.857-1.347-1.857
					C335.484,111.93,334.989,112.74,334.989,113.821z"/>
				<path style="fill:#FFFFFF;" d="M339.997,111.096c0.406-0.066,1.009-0.115,1.676-0.115c0.827,0,1.405,0.124,1.802,0.438
					c0.33,0.264,0.512,0.65,0.512,1.163c0,0.711-0.504,1.197-0.983,1.371v0.024c0.387,0.158,0.603,0.528,0.743,1.041
					c0.172,0.629,0.347,1.355,0.455,1.57h-1.288c-0.092-0.158-0.224-0.611-0.39-1.298c-0.148-0.692-0.387-0.883-0.899-0.891h-0.38
					v2.188h-1.247V111.096z M341.244,113.491h0.496c0.627,0,0.999-0.315,0.999-0.801c0-0.513-0.348-0.77-0.925-0.777
					c-0.306,0-0.48,0.024-0.57,0.042V113.491z"/>
				<path style="fill:#FFFFFF;" d="M346.186,116.589v-2.281l-1.76-3.285h1.438l0.569,1.337c0.174,0.405,0.29,0.701,0.431,1.065
					h0.016c0.124-0.347,0.256-0.669,0.42-1.065l0.563-1.337h1.413l-1.834,3.245v2.321H346.186z"/>
			</g>
		</g>
		<path style="fill:#343489;" d="M266.461,130.066c0,3.476,2.818,6.295,6.293,6.295h52.689c3.475,0,6.295-2.819,6.295-6.295l0,0
			c0-3.475-2.82-6.293-6.295-6.293h-52.689C269.28,123.773,266.461,126.592,266.461,130.066L266.461,130.066z"/>
		<path style="fill:#343489;" d="M331.739,128.817c0,0,1.89,13.859-12.151,17.252c0,0,6.145-11.713-1.431-14.986L331.739,128.817z"
			/>
		<g>
			<path style="fill:#FFFFFF;" d="M337.299,155.522h1.465v5.226h2.564v1.225h-4.029V155.522z"/>
			<path style="fill:#FFFFFF;" d="M343.845,155.522v6.45h-1.463v-6.45H343.845z"/>
			<path style="fill:#FFFFFF;" d="M346.544,156.748h-1.732v-1.226h4.957v1.226h-1.76v5.225h-1.465V156.748z"/>
			<path style="fill:#FFFFFF;" d="M354.575,159.246h-2.373v1.53h2.649v1.196h-4.114v-6.45h3.98v1.196h-2.516v1.339h2.373V159.246z"
				/>
			<path style="fill:#FFFFFF;" d="M356.04,155.608c0.469-0.076,1.167-0.134,1.942-0.134c0.957,0,1.628,0.144,2.086,0.508
				c0.383,0.306,0.593,0.756,0.593,1.349c0,0.823-0.583,1.388-1.138,1.589v0.029c0.45,0.181,0.7,0.612,0.861,1.205
				c0.201,0.728,0.403,1.568,0.527,1.818h-1.492c-0.105-0.183-0.26-0.709-0.45-1.502c-0.172-0.805-0.451-1.025-1.044-1.035h-0.439
				v2.537h-1.445V155.608z M357.485,158.384h0.574c0.727,0,1.157-0.363,1.157-0.929c0-0.593-0.401-0.89-1.072-0.899
				c-0.353,0-0.554,0.029-0.659,0.049V158.384z"/>
			<path style="fill:#FFFFFF;" d="M363.495,160.317l-0.459,1.655h-1.511l1.971-6.45h1.913l2.001,6.45h-1.57l-0.498-1.655H363.495z
				 M365.131,159.227l-0.401-1.368c-0.114-0.384-0.23-0.862-0.325-1.244h-0.02c-0.095,0.382-0.192,0.87-0.296,1.244l-0.382,1.368
				H365.131z"/>
			<path style="fill:#FFFFFF;" d="M368.913,156.748h-1.732v-1.226h4.958v1.226h-1.762v5.225h-1.463V156.748z"/>
			<path style="fill:#FFFFFF;" d="M374.56,155.522v3.714c0,1.108,0.421,1.674,1.167,1.674c0.766,0,1.188-0.536,1.188-1.674v-3.714
				h1.454v3.617c0,1.99-1.006,2.938-2.688,2.938c-1.628,0-2.585-0.899-2.585-2.957v-3.598H374.56z"/>
			<path style="fill:#FFFFFF;" d="M379.825,155.608c0.469-0.076,1.167-0.134,1.942-0.134c0.957,0,1.626,0.144,2.087,0.508
				c0.382,0.306,0.593,0.756,0.593,1.349c0,0.823-0.583,1.388-1.14,1.589v0.029c0.45,0.181,0.698,0.612,0.862,1.205
				c0.201,0.728,0.402,1.568,0.525,1.818h-1.492c-0.106-0.183-0.258-0.709-0.449-1.502c-0.173-0.805-0.45-1.025-1.043-1.035h-0.441
				v2.537h-1.444V155.608z M381.27,158.384h0.573c0.728,0,1.159-0.363,1.159-0.929c0-0.593-0.401-0.89-1.072-0.899
				c-0.354,0-0.554,0.029-0.66,0.049V158.384z"/>
			<path style="fill:#FFFFFF;" d="M389.531,159.246h-2.375v1.53h2.652v1.196h-4.117v-6.45h3.98v1.196h-2.516v1.339h2.375V159.246z"
				/>
		</g>
		<g>
			<g>
				<path style="fill:#FFFFFF;" d="M289.135,130.381c-0.025-0.671-0.048-1.479-0.048-2.289h-0.026
					c-0.172,0.711-0.404,1.504-0.619,2.156l-0.677,2.171h-0.983l-0.595-2.154c-0.182-0.653-0.372-1.445-0.504-2.173h-0.016
					c-0.032,0.751-0.058,1.61-0.1,2.305l-0.099,2.114h-1.165l0.356-5.566h1.676l0.546,1.858c0.172,0.643,0.345,1.338,0.471,1.99
					h0.024c0.156-0.644,0.347-1.38,0.529-1.998l0.595-1.851h1.644l0.306,5.566h-1.231L289.135,130.381z"/>
				<path style="fill:#FFFFFF;" d="M292.845,131.081l-0.396,1.43h-1.306l1.702-5.566h1.653l1.725,5.566h-1.354l-0.429-1.43H292.845z
					 M294.258,130.141l-0.346-1.182c-0.1-0.33-0.2-0.743-0.282-1.073h-0.016c-0.082,0.33-0.166,0.751-0.256,1.073l-0.33,1.182
					H294.258z"/>
				<path style="fill:#FFFFFF;" d="M297.515,128.002h-1.496v-1.058h4.279v1.058h-1.52v4.509h-1.263V128.002z"/>
				<path style="fill:#FFFFFF;" d="M302.392,126.944v2.139h2.073v-2.139h1.255v5.566h-1.255v-2.328h-2.073v2.328h-1.263v-5.566
					H302.392z"/>
				<path style="fill:#FFFFFF;" d="M307.02,131.214c0.338,0.174,0.857,0.347,1.396,0.347c0.577,0,0.883-0.239,0.883-0.604
					c0-0.346-0.264-0.544-0.933-0.784c-0.925-0.321-1.529-0.833-1.529-1.643c0-0.951,0.793-1.678,2.108-1.678
					c0.627,0,1.089,0.133,1.42,0.28l-0.28,1.018c-0.224-0.108-0.621-0.265-1.166-0.265c-0.544,0-0.809,0.248-0.809,0.537
					c0,0.354,0.313,0.512,1.032,0.784c0.983,0.363,1.447,0.875,1.447,1.66c0,0.934-0.719,1.725-2.247,1.725
					c-0.637,0-1.265-0.164-1.58-0.338L307.02,131.214z"/>
			</g>
		</g>
		<path style="fill:#D586D9;" d="M355.461,113.008c0,0,1.892,13.857-12.148,17.25c0,0,6.144-11.713-1.431-14.984L355.461,113.008z"
			/>
		<path style="fill:#D586D9;" d="M355.548,113.707c0,3.779-2.819,6.845-6.295,6.845h-26.053c-3.478,0-6.295-3.065-6.295-6.845l0,0
			c0-3.779,2.817-6.845,6.295-6.845h26.053C352.729,106.862,355.548,109.928,355.548,113.707L355.548,113.707z"/>
		<g>
			<g>
				<path style="fill:#FFFFFF;" d="M324.89,115.291c0.338,0.174,0.859,0.347,1.396,0.347c0.579,0,0.883-0.238,0.883-0.603
					c0-0.347-0.265-0.545-0.933-0.785c-0.925-0.32-1.528-0.833-1.528-1.643c0-0.95,0.793-1.677,2.107-1.677
					c0.628,0,1.089,0.132,1.421,0.28l-0.282,1.017c-0.222-0.108-0.619-0.265-1.165-0.265c-0.545,0-0.809,0.248-0.809,0.537
					c0,0.354,0.314,0.513,1.033,0.785c0.983,0.362,1.446,0.875,1.446,1.659c0,0.934-0.719,1.727-2.247,1.727
					c-0.637,0-1.264-0.165-1.578-0.339L324.89,115.291z"/>
				<path style="fill:#FFFFFF;" d="M330.543,112.079h-1.496v-1.057h4.277v1.057h-1.518v4.51h-1.264V112.079z"/>
				<path style="fill:#FFFFFF;" d="M339.012,113.747c0,1.824-1.107,2.932-2.735,2.932c-1.65,0-2.617-1.247-2.617-2.833
					c0-1.668,1.065-2.915,2.709-2.915C338.079,110.931,339.012,112.211,339.012,113.747z M334.989,113.821
					c0,1.09,0.513,1.858,1.355,1.858c0.851,0,1.337-0.81,1.337-1.893c0-0.999-0.48-1.857-1.347-1.857
					C335.484,111.93,334.989,112.74,334.989,113.821z"/>
				<path style="fill:#FFFFFF;" d="M339.997,111.096c0.406-0.066,1.009-0.115,1.676-0.115c0.827,0,1.405,0.124,1.802,0.438
					c0.33,0.264,0.512,0.65,0.512,1.163c0,0.711-0.504,1.197-0.983,1.371v0.024c0.387,0.158,0.603,0.528,0.743,1.041
					c0.172,0.629,0.347,1.355,0.455,1.57h-1.288c-0.092-0.158-0.224-0.611-0.39-1.298c-0.148-0.692-0.387-0.883-0.899-0.891h-0.38
					v2.188h-1.247V111.096z M341.244,113.491h0.496c0.627,0,0.999-0.315,0.999-0.801c0-0.513-0.348-0.77-0.925-0.777
					c-0.306,0-0.48,0.024-0.57,0.042V113.491z"/>
				<path style="fill:#FFFFFF;" d="M346.186,116.589v-2.281l-1.76-3.285h1.438l0.569,1.337c0.174,0.405,0.29,0.701,0.431,1.065
					h0.016c0.124-0.347,0.256-0.669,0.42-1.065l0.563-1.337h1.413l-1.834,3.245v2.321H346.186z"/>
			</g>
		</g>
	</g>
</g>
</svg>
