<svg xmlns="http://www.w3.org/2000/svg" version="1.1" xmlns:xlink="http://www.w3.org/1999/xlink" xmlns:svgjs="http://svgjs.dev/svgjs" width="2000" height="1010" viewBox="0 0 2000 1010"><g transform="matrix(1,0,0,1,-1.2121212121212466,-0.30295844457293697)"><svg viewBox="0 0 396 200" data-background-color="#ffffff" preserveAspectRatio="xMidYMid meet" height="1010" width="2000" xmlns="http://www.w3.org/2000/svg" xmlns:xlink="http://www.w3.org/1999/xlink"><g id="tight-bounds" transform="matrix(1,0,0,1,0.2400000000000091,0.059991771202561495)"><svg viewBox="0 0 395.52 199.88001645759488" height="199.88001645759488" width="395.52"><g><svg viewBox="0 0 395.52 199.88001645759488" height="199.88001645759488" width="395.52"><g><svg viewBox="0 0 395.52 199.88001645759488" height="199.88001645759488" width="395.52"><g id="textblocktransform"><svg viewBox="0 0 395.52 199.88001645759488" height="199.88001645759488" width="395.52" id="textblock"><g><rect width="395.52" height="141.56922747688188" fill="none" stroke-width="9.018103199999999" stroke="#89939e" data-fill-palette-color="none" data-stroke-palette-color="tertiary"></rect><rect width="395.52" height="58.310788980713" y="141.56922747688188" fill="#89939e" data-fill-palette-color="tertiary"></rect></g><g><svg viewBox="0 0 395.52 141.56922747688188" height="141.56922747688188" width="395.52"><g transform="matrix(1,0,0,1,23.607599999999998,23.607599999999998)"><svg width="348.3048" viewBox="3.74 -35.51044921875 132.87 36.00044921875" height="94.35402747688188" data-palette-color="#89939e"><path d="M10.08-35.01L10.08 0 3.74 0 3.74-35.01 10.08-35.01ZM48.85-6.35L48.85 0 25.95 0Q25.07 0 24.06-0.21 23.04-0.42 22.06-0.85 21.07-1.29 20.16-1.99 19.26-2.69 18.56-3.67 17.87-4.66 17.45-5.97 17.04-7.28 17.04-8.91L17.04-8.91 17.04-26.1Q17.04-26.98 17.25-27.99 17.45-29 17.89-29.99 18.33-30.98 19.04-31.88 19.75-32.79 20.74-33.48 21.73-34.18 23.02-34.59 24.31-35.01 25.95-35.01L25.95-35.01 48.85-35.01 48.85-28.66 25.95-28.66Q24.7-28.66 24.05-28 23.39-27.34 23.39-26.05L23.39-26.05 23.39-8.91Q23.39-7.69 24.06-7.02 24.73-6.35 25.95-6.35L25.95-6.35 48.85-6.35ZM95.6-32.3L95.6 0 89.2 0 89.2-20.85 77.95-1.05Q77.53-0.29 76.79 0.1 76.04 0.49 75.19 0.49L75.19 0.49Q74.36 0.49 73.64 0.1 72.92-0.29 72.5-1.05L72.5-1.05 61.2-20.85 61.2 0 54.85 0 54.85-32.3Q54.85-33.4 55.5-34.25 56.15-35.11 57.2-35.4L57.2-35.4Q57.71-35.52 58.22-35.49 58.74-35.45 59.21-35.27 59.69-35.08 60.08-34.75 60.47-34.42 60.74-33.96L60.74-33.96 75.19-8.84 89.64-33.96Q90.2-34.89 91.19-35.28 92.18-35.67 93.26-35.4L93.26-35.4Q94.28-35.11 94.94-34.25 95.6-33.4 95.6-32.3L95.6-32.3ZM136.61-10.3L136.61-10.3Q136.61-8.42 136.14-6.92 135.66-5.42 134.88-4.27 134.1-3.13 133.05-2.32 132-1.51 130.88-1 129.75-0.49 128.59-0.24 127.43 0 126.41 0L126.41 0 101.92 0 101.92-6.35 126.41-6.35Q128.24-6.35 129.25-7.42 130.27-8.5 130.27-10.3L130.27-10.3Q130.27-11.18 130-11.91 129.73-12.65 129.23-13.18 128.73-13.72 128.01-14.01 127.29-14.31 126.41-14.31L126.41-14.31 111.81-14.31Q110.27-14.31 108.49-14.86 106.71-15.41 105.18-16.63 103.65-17.85 102.64-19.82 101.63-21.8 101.63-24.66L101.63-24.66Q101.63-27.51 102.64-29.48 103.65-31.45 105.18-32.68 106.71-33.91 108.49-34.46 110.27-35.01 111.81-35.01L111.81-35.01 133.42-35.01 133.42-28.66 111.81-28.66Q110-28.66 108.99-27.56 107.98-26.46 107.98-24.66L107.98-24.66Q107.98-22.83 108.99-21.77 110-20.7 111.81-20.7L111.81-20.7 126.41-20.7 126.46-20.7Q127.48-20.68 128.63-20.42 129.78-20.17 130.91-19.63 132.05-19.09 133.07-18.27 134.1-17.46 134.89-16.31 135.69-15.16 136.15-13.67 136.61-12.18 136.61-10.3Z" opacity="1" transform="matrix(1,0,0,1,0,0)" fill="#89939e" class="wordmark-text-0" data-fill-palette-color="primary" id="text-0"></path></svg></g></svg></g></svg></g></svg></g><g></g></svg></g><defs></defs></svg><rect width="395.52" height="199.88001645759488" fill="none" stroke="none" visibility="hidden"></rect></g></svg></g></svg>